<svg width="27" height="26" viewBox="0 0 27 26" fill="none" xmlns="http://www.w3.org/2000/svg">
<path d="M21.4885 25H5.5115C3.3037 25 1.5 23.1963 1.5 20.9885V5.0115C1.5 2.8037 3.3037 1 5.5115 1H21.4885C23.6963 1 25.5 2.8037 25.5 5.0115V20.9885C25.5 23.2062 23.7062 25 21.4885 25Z" stroke="white" stroke-width="1.5"/>
<path d="M9.1494 17.3614C10.3124 18.5244 11.8599 19.1651 13.5059 19.1651C15.1519 19.1651 16.6894 18.5244 17.8623 17.3614C19.0254 16.1983 19.666 14.6509 19.666 13.0049C19.666 11.3589 19.0254 9.81146 17.8623 8.64842C16.6993 7.48538 15.1519 6.84473 13.5059 6.84473C11.8599 6.84473 10.3124 7.48538 9.1494 8.64842C7.98636 9.81146 7.3457 11.3589 7.3457 13.0049C7.3457 14.6509 7.98636 16.1983 9.1494 17.3614Z" stroke="white" stroke-width="1.5"/>
<path d="M20.8656 6.64242C21.5189 6.64242 22.0484 6.11287 22.0484 5.45964C22.0484 4.8064 21.5189 4.27686 20.8656 4.27686C20.2124 4.27686 19.6829 4.8064 19.6829 5.45964C19.6829 6.11287 20.2124 6.64242 20.8656 6.64242Z" stroke="white" stroke-width="1.5"/>
</svg>
