<svg width="27" height="26" viewBox="0 0 27 26" fill="none" xmlns="http://www.w3.org/2000/svg">
<path d="M6.91935 8.89209H1.90442V24.8844H6.91935V8.89209Z" stroke="white" stroke-width="1.5"/>
<path d="M20.4855 8.5456C20.3007 8.52249 20.1042 8.51093 19.9078 8.49938C17.0999 8.38383 15.5168 10.0478 14.9622 10.7642C14.812 10.9606 14.7426 11.0762 14.7426 11.0762V8.93847H9.94727V24.9308H14.7426H14.9622C14.9622 23.3015 14.9622 21.6838 14.9622 20.0545C14.9622 19.1763 14.9622 18.2981 14.9622 17.4199C14.9622 16.3338 14.8813 15.1782 15.4244 14.1845C15.8866 13.3525 16.7186 12.9365 17.6545 12.9365C20.4278 12.9365 20.4855 15.444 20.4855 15.6751C20.4855 15.6867 20.4855 15.6982 20.4855 15.6982V25.0001H25.5005V14.5658C25.5005 10.9953 23.6863 8.89225 20.4855 8.5456Z" stroke="white" stroke-width="1.5"/>
<path d="M4.41189 6.82379C6.02008 6.82379 7.32379 5.52009 7.32379 3.91189C7.32379 2.3037 6.02008 1 4.41189 1C2.80369 1 1.5 2.3037 1.5 3.91189C1.5 5.52009 2.80369 6.82379 4.41189 6.82379Z" stroke="white" stroke-width="1.5"/>
</svg>
