<svg width="57" height="58" viewBox="0 0 57 58" fill="none" xmlns="http://www.w3.org/2000/svg">
<path d="M28.5 39C35.4036 39 41 33.4036 41 26.5C41 19.5964 35.4036 14 28.5 14C21.5964 14 16 19.5964 16 26.5C16 33.4036 21.5964 39 28.5 39Z" stroke="white" stroke-width="2" stroke-linecap="round" stroke-linejoin="round"/>
<path d="M53.5 1.5H3.5C2.11929 1.5 1 2.61929 1 4V54C1 55.3807 2.11929 56.5 3.5 56.5H53.5C54.8807 56.5 56 55.3807 56 54V4C56 2.61929 54.8807 1.5 53.5 1.5Z" stroke="white" stroke-width="2" stroke-linecap="round" stroke-linejoin="round"/>
<path d="M6.55762 56.4999C7.69185 51.5287 10.4805 47.09 14.4669 43.9107C18.4533 40.7314 23.4011 39 28.5001 39C33.599 39 38.5468 40.7314 42.5332 43.9107C46.5196 47.09 49.3083 51.5287 50.4425 56.4999" stroke="white" stroke-width="2" stroke-linecap="round" stroke-linejoin="round"/>
</svg>
