<svg width="167" height="46" viewBox="0 0 167 46" fill="none" xmlns="http://www.w3.org/2000/svg">
<g clip-path="url(#clip0_878_28964)">
<path d="M14.6685 38.5819C14.0698 35.4776 12.7229 31.2155 8.18293 17.9563H0.5L11.0266 45.4745H18.2104L28.1883 17.9561H20.6549C16.3646 30.9521 15.1674 35.1091 14.6685 38.5817V38.5819Z" fill="white"/>
<path d="M41.748 17.376C33.8657 17.376 28.2778 23.5321 28.2778 31.7931C28.2778 40.3167 34.0649 45.9993 42.147 45.9993C47.2816 45.9993 51.6704 43.1907 53.7565 39.185L48.4828 36.1603C47.435 38.3174 45.29 39.8432 42.197 39.8432C38.5552 39.8432 35.7114 37.4228 35.3623 34.0556H55.1679C55.5172 23.0059 49.6801 17.376 41.748 17.376ZM35.3125 28.8462C35.5618 25.6368 38.2059 23.3743 41.748 23.3743C45.2902 23.3743 47.8343 25.6368 47.984 28.8462H35.3125Z" fill="white"/>
<path d="M83.6043 17.9561H76.5203V45.4745H83.6043V17.9561Z" fill="white"/>
<path d="M118.032 11.8525C118.98 11.8525 120.078 12.0103 121.175 12.3258V6.32768C119.978 5.90693 118.332 5.59082 116.685 5.59082C111.996 5.59082 107.306 8.22175 107.306 16.0089V17.9559H96.9748V17.0613C96.5755 13.115 98.0722 11.8525 100.617 11.8525C101.564 11.8525 102.662 12.0103 103.76 12.3258V6.32768C102.562 5.90693 100.916 5.59082 99.2698 5.59082C94.5803 5.59082 89.8906 8.22175 89.8906 16.0089V17.9559H86.7974V23.794H89.8906V45.4741H96.9748V23.794H107.306V45.4741H114.39V23.794H121.175V17.9559H114.39V17.0613C113.991 13.115 115.488 11.8525 118.032 11.8525Z" fill="white"/>
<path d="M65.7694 26.3874V25.3129L64.9989 17.9554H58.835V45.4736H65.7694V34.3223C65.7694 28.5054 69.5775 24.898 73.7561 24.898V17.6396C68.8499 18.1546 65.7696 21.1334 65.7694 26.3876V26.3874Z" fill="white"/>
<path d="M83.6617 8.01562H76.4634V14.0047H83.6617V8.01562Z" fill="white"/>
<path d="M152.451 17.7153V36.29L152.511 36.2892C153.694 26.9064 158.957 20.7738 166.842 17.8546V-1.05078C157.774 0.617291 152.451 6.66406 152.451 17.7153Z" fill="#14E5C5"/>
<path d="M135.542 33.6022L149.932 46.1127V21.2996L135.542 8.78906V33.6022Z" fill="#14E5C5"/>
</g>
<defs>
<clipPath id="clip0_878_28964">
<rect width="166" height="46" fill="white" transform="translate(0.5)"/>
</clipPath>
</defs>
</svg>
