<svg width="56" height="56" viewBox="0 0 56 56" fill="none" xmlns="http://www.w3.org/2000/svg">
<path d="M23.7573 35.0711C22.3431 39.3137 16.6863 39.3137 16.6863 39.3137C16.6863 39.3137 16.6863 33.6569 20.9289 32.2427" stroke="#C6A15A" stroke-width="2" stroke-linecap="round" stroke-linejoin="round"/>
<path d="M36.4849 25.1715L27.9996 33.6568L22.3428 27.9999L30.8281 19.5147C34.0411 16.3016 37.2541 16.333 38.6244 16.5374C38.8353 16.5689 39.0306 16.6673 39.1815 16.8181C39.3323 16.9689 39.4307 17.1642 39.4621 17.3752C39.6666 18.7455 39.6979 21.9585 36.4849 25.1715Z" stroke="#C6A15A" stroke-width="2" stroke-linecap="round" stroke-linejoin="round"/>
<path d="M35.0711 26.5857V34.6568C35.0711 34.7881 35.0452 34.9181 34.9949 35.0394C34.9447 35.1608 34.871 35.271 34.7782 35.3639L30.7355 39.4066C30.6075 39.5346 30.4471 39.6254 30.2716 39.6694C30.096 39.7135 29.9118 39.709 29.7386 39.6566C29.5653 39.6041 29.4096 39.5056 29.2879 39.3716C29.1663 39.2376 29.0833 39.0731 29.0478 38.8956L28 33.6568" stroke="#C6A15A" stroke-width="2" stroke-linecap="round" stroke-linejoin="round"/>
<path d="M29.4146 20.929H21.3435C21.2122 20.929 21.0821 20.9548 20.9608 21.0051C20.8395 21.0553 20.7293 21.129 20.6364 21.2218L16.5937 25.2646C16.4657 25.3926 16.3748 25.5529 16.3308 25.7284C16.2868 25.904 16.2912 26.0882 16.3437 26.2615C16.3961 26.4347 16.4946 26.5904 16.6286 26.7121C16.7627 26.8338 16.9272 26.9168 17.1047 26.9523L22.3435 28" stroke="#C6A15A" stroke-width="2" stroke-linecap="round" stroke-linejoin="round"/>
</svg>
