<svg width="56" height="56" viewBox="0 0 56 56" fill="none" xmlns="http://www.w3.org/2000/svg">
<path d="M28 28L40 16" stroke="#C6A15A" stroke-width="2" stroke-linecap="round" stroke-linejoin="round"/>
<path d="M36.4853 19.5146C34.3596 17.3931 31.5151 16.1468 28.5145 16.0221C25.5139 15.8974 22.5758 16.9034 20.2814 18.8412C17.9871 20.779 16.5036 23.5074 16.1245 26.4866C15.7454 29.4658 16.4983 32.4787 18.2342 34.9294C19.9701 37.38 22.5626 39.0899 25.4988 39.7207C28.435 40.3514 31.501 39.8572 34.0903 38.3357C36.6796 36.8142 38.6034 34.3763 39.4813 31.5043C40.3592 28.6322 40.1272 25.5353 38.8311 22.8262" stroke="#C6A15A" stroke-width="2" stroke-linecap="round" stroke-linejoin="round"/>
<path d="M32.2423 23.7575C31.2503 22.7656 29.9422 22.1526 28.5452 22.0251C27.1482 21.8976 25.7507 22.2636 24.5955 23.0596C23.4404 23.8555 22.6007 25.0311 22.2223 26.3819C21.844 27.7327 21.9509 29.1734 22.5246 30.4536C23.0982 31.7337 24.1023 32.7724 25.3623 33.3891C26.6222 34.0058 28.0585 34.1615 29.4214 33.8291C30.7842 33.4968 31.9875 32.6974 32.8222 31.5699C33.6568 30.4424 34.07 29.0581 33.9899 27.6576" stroke="#C6A15A" stroke-width="2" stroke-linecap="round" stroke-linejoin="round"/>
</svg>
