<svg width="343" height="148" viewBox="0 0 343 148" fill="none" xmlns="http://www.w3.org/2000/svg">
<path d="M596.364 -29.2378L596.112 -28.8707C607.464 -21.1475 612.456 -15.4011 611.378 -11.3045C609.552 -4.37145 590.245 -2.74864 569.803 -1.03404C552.311 0.433364 534.239 1.95062 523.136 6.74502C484.424 23.458 446.463 31.2044 400.05 31.8616C383.183 32.1102 367.591 31.4595 353.826 30.8927C319.369 29.4747 292.152 28.3587 266.139 40.8971C254.882 46.3243 244.847 52.2476 235.533 57.846C214.389 70.5625 197.919 84.8028 181.991 98.5693C157.355 119.876 134.086 139.993 97.6791 150.147C71.6245 157.413 39.3871 159.137 -0.876152 155.409L-0.917682 155.85C39.4003 159.575 71.6888 157.847 97.7976 150.572C134.3 140.397 157.606 120.245 182.284 98.9067C198.197 85.1474 214.654 70.9194 235.768 58.2225C245.073 52.6268 255.097 46.7046 266.339 41.2918C292.25 28.7987 319.418 29.9178 353.816 31.3327C367.579 31.8997 383.179 32.5421 400.058 32.3016C446.533 31.6417 484.546 23.8808 523.313 7.14936C534.351 2.38361 552.392 0.869533 569.84 -0.595249C591.341 -2.39928 609.903 -3.95723 611.808 -11.1958C612.939 -15.4925 607.889 -21.3965 596.364 -29.2378Z" fill="white"/>
</svg>
