<svg width="24" height="25" viewBox="0 0 24 25" fill="none" xmlns="http://www.w3.org/2000/svg">
<path d="M21.6131 18.2906C22.1885 17.2149 22.4929 16.0151 22.4999 14.7952C22.5068 13.5753 22.2161 12.372 21.653 11.2898C21.0899 10.2076 20.2713 9.27911 19.2683 8.58474C18.2652 7.89037 17.108 7.45111 15.8968 7.30504C15.4989 6.374 14.9166 5.53317 14.185 4.83322C13.4534 4.13328 12.5876 3.58871 11.6399 3.23235C10.6922 2.87598 9.68212 2.7152 8.67059 2.75969C7.65906 2.80417 6.66701 3.05301 5.75424 3.4912C4.84146 3.92939 4.02686 4.54786 3.35953 5.30933C2.6922 6.07081 2.18596 6.95951 1.87132 7.92189C1.55669 8.88427 1.44016 9.90039 1.52878 10.909C1.6174 11.9176 1.90932 12.8979 2.38696 13.7906L1.80715 15.8203C1.74282 16.0454 1.73984 16.2835 1.79852 16.5101C1.85721 16.7367 1.97542 16.9435 2.14092 17.109C2.30642 17.2746 2.51317 17.3928 2.73975 17.4515C2.96633 17.5103 3.20449 17.5073 3.42956 17.443L5.45947 16.8631C6.28089 17.3028 7.17718 17.5852 8.10227 17.6959C8.51124 18.6526 9.1147 19.5138 9.87433 20.2248C10.6339 20.9358 11.5331 21.481 12.5148 21.8259C13.4964 22.1707 14.539 22.3077 15.5764 22.228C16.6138 22.1483 17.6233 21.8538 18.5407 21.3631L20.5705 21.943C20.7956 22.0073 21.0337 22.0103 21.2603 21.9515C21.4869 21.8928 21.6936 21.7746 21.8591 21.6091C22.0246 21.4436 22.1428 21.2368 22.2016 21.0102C22.2603 20.7837 22.2573 20.5455 22.193 20.3205L21.6131 18.2906ZM20.1612 17.8118C20.1089 17.8996 20.0752 17.9972 20.062 18.0986C20.0489 18.1999 20.0566 18.3029 20.0847 18.4012L20.658 20.408L18.6512 19.8347C18.5529 19.8066 18.45 19.7989 18.3486 19.8121C18.2473 19.8253 18.1497 19.859 18.0619 19.9112C17.3755 20.318 16.6149 20.5839 15.8245 20.6933C15.0342 20.8027 14.2299 20.7535 13.4588 20.5485C12.6877 20.3435 11.9652 19.9868 11.3336 19.4993C10.7019 19.0119 10.1738 18.4034 9.78003 17.7094C10.8073 17.6031 11.8016 17.2855 12.7003 16.7765C13.599 16.2676 14.3828 15.5783 15.0023 14.752C15.6219 13.9257 16.0639 12.9801 16.3006 11.9748C16.5373 10.9695 16.5636 9.92607 16.3777 8.91012C17.2941 9.12658 18.1467 9.55559 18.8665 10.1625C19.5864 10.7694 20.1534 11.5371 20.5218 12.4037C20.8901 13.2702 21.0493 14.2112 20.9867 15.1507C20.9241 16.0902 20.6413 17.0018 20.1612 17.8118Z" fill="#C6A15A"/>
</svg>
