<svg width="53" height="40" viewBox="0 0 53 40" fill="none" xmlns="http://www.w3.org/2000/svg">
<g clip-path="url(#clip0_333_10805)">
<path d="M7.47412 36L8.25583 40H26.4998H44.7437L45.5254 36H26.4998H7.47412Z" fill="#C6A15A"/>
<path d="M50.8475 12.7714C50.4484 12.7729 50.058 12.888 49.7214 13.1034C49.3848 13.3188 49.1158 13.6255 48.9456 13.9882C48.7755 14.3508 48.7111 14.7545 48.7599 15.1524C48.8087 15.5503 48.9688 15.9261 49.2215 16.2364L45.183 19.9153L44.2381 13.0719C44.8111 12.9873 45.3387 12.7104 45.7354 12.2864C46.132 11.8624 46.3743 11.3162 46.4229 10.7363C46.4714 10.1565 46.3235 9.57725 46.0029 9.09261C45.6824 8.60797 45.2082 8.24645 44.6573 8.06676C44.1065 7.88708 43.5113 7.89979 42.9686 8.10285C42.4258 8.3059 41.9673 8.68737 41.6676 9.18526C41.3679 9.68315 41.2446 10.2682 41.3176 10.8454C41.3907 11.4226 41.6559 11.9581 42.0701 12.3648L36.2279 18.791L28.0383 5.50718C28.5867 5.16709 29.0097 4.65655 29.2432 4.05303C29.4766 3.44951 29.5077 2.78596 29.3318 2.16308C29.1558 1.54019 28.7824 0.991963 28.2682 0.601588C27.7541 0.211214 27.1272 0 26.4827 0C25.8382 0 25.2113 0.211214 24.6971 0.601588C24.1829 0.991963 23.8095 1.54019 23.6336 2.16308C23.4577 2.78596 23.4888 3.44951 23.7222 4.05303C23.9557 4.65655 24.3787 5.16709 24.9271 5.50718L16.7339 18.8546L10.8829 12.3789C11.2982 11.972 11.5641 11.4359 11.6376 10.8579C11.711 10.2798 11.5875 9.69384 11.2873 9.19523C10.9871 8.69662 10.5278 8.31475 9.98404 8.11175C9.44033 7.90875 8.84424 7.89657 8.29276 8.07719C7.74129 8.2578 7.26687 8.62058 6.94671 9.10651C6.62655 9.59244 6.47949 10.1729 6.52945 10.7535C6.5794 11.3341 6.82345 11.8806 7.22187 12.3041C7.62029 12.7276 8.14964 13.0032 8.72379 13.0861L7.77707 19.9295L3.73856 16.2505C4.04464 15.8789 4.21552 15.4136 4.22302 14.9313C4.23053 14.449 4.07421 13.9785 3.77984 13.5975C3.48548 13.2164 3.07064 12.9475 2.60373 12.8351C2.13682 12.7227 1.64573 12.7735 1.21142 12.9791C0.777106 13.1848 0.425516 13.5329 0.21462 13.9663C0.00372355 14.3996 -0.0538852 14.8922 0.051291 15.3628C0.156467 15.8335 0.418148 16.2541 0.793187 16.5552C1.16823 16.8564 1.63423 17.0202 2.11435 17.0196C2.29933 17.0189 2.48339 16.9933 2.66162 16.9435L6.96233 34H45.9995L50.2985 16.9435C50.5906 17.0289 50.8976 17.0499 51.1985 17.005C51.4994 16.9601 51.7871 16.8505 52.0419 16.6835C52.2967 16.5166 52.5126 16.2963 52.6748 16.0377C52.837 15.7792 52.9417 15.4885 52.9817 15.1855C53.0217 14.8826 52.996 14.5745 52.9066 14.2824C52.8171 13.9903 52.6658 13.7211 52.4631 13.4932C52.2605 13.2653 52.0112 13.0841 51.7323 12.9619C51.4535 12.8398 51.1516 12.7796 50.8475 12.7855V12.7714Z" fill="#C6A15A"/>
</g>
<defs>
<clipPath id="clip0_333_10805">
<rect width="53" height="40" fill="white"/>
</clipPath>
</defs>
</svg>
