<svg width="24" height="25" viewBox="0 0 24 25" fill="none" xmlns="http://www.w3.org/2000/svg">
<path d="M21.8865 12.5V20C21.8854 20.9942 21.4899 21.9474 20.7869 22.6504C20.0839 23.3534 19.1307 23.7489 18.1365 23.75H12.75C12.5511 23.75 12.3603 23.671 12.2197 23.5303C12.079 23.3897 12 23.1989 12 23C12 22.8011 12.079 22.6103 12.2197 22.4697C12.3603 22.329 12.5511 22.25 12.75 22.25H18.1365C18.733 22.2493 19.3049 22.0121 19.7267 21.5902C20.1486 21.1684 20.3858 20.5965 20.3865 20V19.871C20.1457 19.9565 19.892 20.0001 19.6365 20H18.1365C17.54 19.9993 16.9681 19.7621 16.5463 19.3402C16.1245 18.9184 15.8872 18.3465 15.8865 17.75V14C15.8872 13.4035 16.1245 12.8316 16.5463 12.4098C16.9681 11.988 17.54 11.7507 18.1365 11.75H20.3532C20.1647 9.68955 19.2091 7.77509 17.6756 6.38603C16.1421 4.99696 14.1428 4.23468 12.0738 4.25024C12.0699 4.25028 12.0665 4.25028 12.0626 4.25024C9.99365 4.23474 7.99435 4.99705 6.46092 6.3861C4.92749 7.77516 3.97183 9.68959 3.78333 11.75H6C6.59653 11.7507 7.16843 11.988 7.59024 12.4098C8.01205 12.8316 8.24932 13.4035 8.25 14V17.75C8.24932 18.3465 8.01205 18.9184 7.59024 19.3402C7.16843 19.7621 6.59653 19.9993 6 20H4.5C3.90347 19.9993 3.33157 19.7621 2.90976 19.3402C2.48795 18.9184 2.25068 18.3465 2.25 17.75V12.5C2.25 11.2139 2.50446 9.94046 2.99872 8.7531C3.49297 7.56574 4.21727 6.48789 5.12987 5.58165C6.04247 4.6754 7.12536 3.95867 8.31615 3.47273C9.50694 2.98679 10.7821 2.74124 12.0682 2.75024C12.0911 2.7501 12.1143 2.75001 12.1371 2.75001C14.7229 2.75018 17.2027 3.77749 19.031 5.60595C20.8594 7.43441 21.8865 9.91426 21.8865 12.5Z" fill="#C6A15A"/>
</svg>
