<svg width="81" height="80" viewBox="0 0 81 80" fill="none" xmlns="http://www.w3.org/2000/svg">
<g clip-path="url(#clip0_28_5273)">
<rect x="0.5" width="80" height="80" rx="12" fill="#F5F6FA"/>
<path fill-rule="evenodd" clip-rule="evenodd" d="M260.623 26.9354C263.507 26.8737 266.365 27.495 268.964 28.7487C271.375 29.9712 273.351 31.9055 274.625 34.2893C276.067 37.1886 276.759 40.4024 276.64 43.6379V66.2839H271.362V44.1214C271.486 42.4433 271.278 40.7571 270.749 39.1597C270.22 37.5623 269.381 36.0852 268.279 34.8132C267.131 33.7256 265.771 32.8868 264.283 32.3494C262.796 31.812 261.214 31.5876 259.636 31.6903C257.123 31.6324 254.635 32.2075 252.403 33.3625C250.362 34.4528 248.704 36.1398 247.648 38.198C246.479 40.5554 245.904 43.1632 245.975 45.7937V66.2839H240.697V11.2H245.975V34.0415C247.228 32.0984 248.939 30.4783 250.972 29.333C253.915 27.6801 257.249 26.8518 260.623 26.9354ZM13.8333 14.323V66.284H19.112V24.9622L39.5216 59.6755H42.0401L62.5303 24.7283V66.284H67.809V14.323H63.2758L40.8882 52.8879L18.3665 14.323H13.8333ZM97.8494 65.2162C100.249 66.2348 102.839 66.7294 105.445 66.6668C108.665 66.7794 111.851 65.976 114.632 64.3498C116.391 63.2932 117.848 61.8208 118.884 60.0754V66.284L123.84 66.1631V41.9859C123.907 36.8818 122.564 33.0806 119.81 30.5822C116.531 27.8973 112.354 26.5579 108.125 26.8348C105.149 26.8263 102.191 27.2887 99.3605 28.2048C96.753 29.0351 94.331 30.3624 92.2282 32.1135L94.6056 36.143C96.3204 34.6847 98.2868 33.5514 100.408 32.7985C102.714 31.964 105.149 31.5412 107.601 31.5493C110.602 31.3246 113.573 32.2787 115.882 34.2088C116.853 35.2211 117.601 36.425 118.08 37.7434C118.559 39.0617 118.757 40.4656 118.662 41.865V44.2021H106.271C103.236 44.0802 100.21 44.5949 97.386 45.7132C95.4302 46.5363 93.7766 47.9437 92.6513 49.7427C91.6798 51.4261 91.1787 53.3398 91.2007 55.2833C91.1609 57.3791 91.7581 59.4375 92.9132 61.1866C94.1339 62.9793 95.8486 64.3792 97.8494 65.2162ZM118.662 48.2316H106.513C102.745 48.2316 100.146 48.8965 98.6755 50.2464C97.9562 50.9139 97.3901 51.7293 97.0163 52.6366C96.6424 53.5438 96.4696 54.5213 96.5098 55.5017C96.55 56.4822 96.8023 57.4422 97.2492 58.3158C97.6961 59.1894 98.327 59.9557 99.0986 60.5621C101.233 62.0196 103.791 62.7282 106.372 62.5768C109.071 62.6539 111.735 61.9546 114.048 60.5621C116.185 59.1162 117.786 57.0058 118.602 54.558L118.662 54.7435V48.2316ZM143.021 31.6902V27.3182H149.992V18.6949H155.27V27.3182H167.198V31.6902H155.27V54.9608C155.153 56.8771 155.772 58.7659 157.003 60.2395C157.664 60.881 158.452 61.3773 159.316 61.6965C160.18 62.0157 161.101 62.1508 162.02 62.0931C164.139 62.174 166.21 61.4547 167.822 60.0783L169.676 63.8661C168.585 64.7969 167.307 65.4838 165.929 65.8809C164.478 66.3636 162.964 66.6284 161.436 66.6667C159.897 66.7688 158.353 66.5571 156.898 66.0446C155.444 65.532 154.109 64.7291 152.974 63.6848C151.935 62.5627 151.134 61.2412 150.622 59.8004C150.109 58.3595 149.895 56.8295 149.992 55.3033V31.6902H143.021ZM194.498 64.108C197.672 65.8366 201.239 66.7179 204.854 66.6668C207.995 66.7544 211.114 66.1059 213.96 64.7729C216.586 63.5096 218.785 61.5068 220.287 59.0107L216.257 56.3512C215.015 58.2089 213.296 59.6982 211.281 60.6628C209.078 61.6686 206.672 62.1485 204.253 62.0646C201.833 61.9807 199.466 61.3352 197.339 60.1792C195.122 58.927 193.295 57.0861 192.06 54.8602C190.696 52.396 190.001 49.6174 190.045 46.8011C190.001 43.9849 190.696 41.2062 192.06 38.742C193.29 36.5178 195.119 34.6823 197.339 33.4432C199.466 32.2872 201.833 31.6417 204.253 31.5578C206.672 31.4739 209.078 31.9538 211.281 32.9597C213.28 33.9657 214.961 35.5072 216.136 37.4123L220.166 34.7327C218.676 32.2214 216.474 30.209 213.84 28.9503C211.038 27.6008 207.964 26.9116 204.854 26.9355C201.244 26.881 197.679 27.7478 194.498 29.454C191.517 31.0833 189.042 33.5022 187.345 36.4452C185.57 39.5888 184.673 43.1515 184.746 46.7608C184.68 50.3565 185.577 53.9044 187.345 57.0362C189.039 60.0025 191.512 62.4483 194.498 64.108ZM358.742 28.7487C356.166 27.4904 353.327 26.8685 350.461 26.9354C346.786 26.8349 343.168 27.8537 340.085 29.8568C338.017 31.2065 336.318 33.03 335.12 35.1604C334.2 33.0422 332.738 31.1803 330.857 29.7762C327.996 27.8208 324.59 26.8194 321.126 26.9153C317.832 26.8311 314.581 27.6684 311.737 29.333C309.687 30.563 307.993 32.2882 306.801 34.3376V27.3182H301.744V66.2839H307.002V45.7937C306.925 43.1715 307.47 40.5683 308.594 38.198C309.593 36.1593 311.188 34.4727 313.168 33.3625C315.287 32.2137 317.669 31.6374 320.078 31.6903C321.601 31.5951 323.126 31.8243 324.554 32.3627C325.981 32.901 327.278 33.7363 328.359 34.8132C330.525 37.4107 331.594 40.7491 331.341 44.1214V66.2839H336.599V45.7937C336.528 43.1699 337.08 40.5666 338.211 38.198C339.202 36.137 340.807 34.4336 342.805 33.3222C344.936 32.1666 347.333 31.59 349.756 31.65C351.282 31.5548 352.811 31.7879 354.239 32.3336C355.668 32.8792 356.963 33.7248 358.037 34.8132C360.164 37.4288 361.209 40.7594 360.958 44.1214V66.2839H366.237V43.6379C366.336 40.4042 365.644 37.1952 364.222 34.2893C363.012 31.9207 361.097 29.9851 358.742 28.7487ZM402.362 66.6667C399.749 66.7273 397.153 66.2328 394.746 65.2161C392.745 64.3791 391.03 62.9793 389.81 61.1866C388.655 59.4375 388.057 57.379 388.097 55.2833C388.075 53.3397 388.576 51.4261 389.548 49.7426C390.681 47.9431 392.342 46.5362 394.303 45.7131C397.119 44.593 400.139 44.0781 403.168 44.202H415.579V41.8649C415.671 40.464 415.47 39.0593 414.987 37.7409C414.505 36.4224 413.753 35.2193 412.778 34.2088C410.475 32.2817 407.512 31.3277 404.518 31.5493C402.059 31.5392 399.617 31.962 397.305 32.7984C395.187 33.5456 393.226 34.6796 391.522 36.1429L389.145 32.1134C391.24 30.3625 393.656 29.035 396.257 28.2047C399.088 27.2887 402.046 26.8263 405.021 26.8347C409.29 26.5753 413.497 27.9513 416.788 30.6829C419.474 33.1812 420.817 36.9824 420.817 42.0865V66.2638L415.8 66.2839V60.259C414.76 61.9659 413.319 63.4074 411.589 64.4505C408.788 66.0552 405.586 66.8243 402.362 66.6667ZM403.329 48.2316H415.579V54.6587C414.688 57.0853 413.034 59.157 410.864 60.562C408.545 61.9582 405.873 62.6577 403.168 62.5767C400.587 62.7281 398.029 62.0195 395.894 60.562C395.121 59.9562 394.489 59.1894 394.042 58.3148C393.595 57.4403 393.343 56.4789 393.305 55.4974C393.267 54.516 393.442 53.5379 393.82 52.6311C394.197 51.7244 394.768 50.9106 395.491 50.2463C396.942 48.8964 399.561 48.2316 403.329 48.2316ZM446.002 11.2V66.2839H451.28V55.1829L460.479 46.6566L476.223 66.2839L482.691 66.3242L464.388 43.2453L481.059 27.3182H474.591L451.28 48.5785V11.2H446.002ZM524.9 60.6829C526.921 59.8426 528.711 58.5299 530.119 56.8549L533.101 60.28C531.361 62.3642 529.141 63.9957 526.633 65.0348C523.932 66.1487 521.033 66.7038 518.111 66.6668C514.4 66.7197 510.735 65.8399 507.453 64.108C504.41 62.4745 501.889 60.0166 500.179 57.016C498.42 53.888 497.523 50.3491 497.58 46.7609C497.52 43.1936 498.373 39.6703 500.058 36.5258C501.645 33.5748 504.025 31.1255 506.929 29.454C509.966 27.7497 513.4 26.8808 516.882 26.9355C520.153 26.9094 523.375 27.7357 526.23 29.3331C529.006 30.904 531.315 33.1847 532.919 35.9415C534.639 38.8655 535.582 42.1808 535.659 45.5721L503.423 51.8179C504.313 54.8438 506.211 57.4743 508.802 59.2726C511.545 61.1291 514.8 62.0802 518.111 61.9925C520.439 62.0222 522.75 61.5766 524.9 60.6829ZM509.467 33.3626C507.322 34.6152 505.57 36.4439 504.41 38.6413C503.166 41.0345 502.543 43.7016 502.597 46.3982C502.556 46.9414 502.556 47.487 502.597 48.0302L530.139 42.6709C529.617 39.5369 528.013 36.6851 525.606 34.6118C523.136 32.4823 519.96 31.354 516.7 31.4486C514.161 31.4238 511.662 32.0851 509.467 33.3626ZM557.157 27.3182V66.2839H562.395V46.3981C562.134 42.5282 563.383 38.7079 565.88 35.7399C567.144 34.4792 568.662 33.5034 570.334 32.8779C572.005 32.2523 573.791 31.9917 575.572 32.1133C575.766 32.0934 575.962 32.0934 576.156 32.1133H576.76V26.9958C573.41 26.8804 570.092 27.6889 567.17 29.3329C565.001 30.6505 563.275 32.5708 562.193 34.8462V27.3182H557.157ZM620.864 66.284L644.618 14.323H650.038L673.792 66.284H668.01L647.326 20.089L626.566 66.284H620.864ZM693.234 14.323V66.284H698.735V14.323H693.234Z" fill="url(#paint0_linear_28_5273)"/>
</g>
<defs>
<linearGradient id="paint0_linear_28_5273" x1="-25.5002" y1="89.5" x2="100.5" y2="8.00004" gradientUnits="userSpaceOnUse">
<stop stop-color="#222224"/>
<stop offset="1" stop-color="#B29B6A"/>
</linearGradient>
<clipPath id="clip0_28_5273">
<rect x="0.5" width="80" height="80" rx="12" fill="white"/>
</clipPath>
</defs>
</svg>
