<svg width="20" height="20" viewBox="0 0 20 20" fill="none" xmlns="http://www.w3.org/2000/svg">
<path d="M10.0002 0.250732C8.30681 0.251029 6.64263 0.692309 5.17155 1.53113C3.70046 2.36996 2.47317 3.57741 1.61048 5.03464C0.747798 6.49186 0.279458 8.14862 0.251567 9.84182C0.223676 11.535 0.637194 13.2063 1.45142 14.6912L0.649415 17.4949C0.575726 17.7521 0.572216 18.0244 0.639251 18.2835C0.706286 18.5425 0.841423 18.7789 1.03064 18.9681C1.21986 19.1574 1.45626 19.2925 1.71532 19.3595C1.97438 19.4266 2.24666 19.4231 2.50391 19.3494L5.30835 18.5496C6.61167 19.2648 8.06129 19.6726 9.54637 19.7417C11.0315 19.8108 12.5127 19.5393 13.8768 18.9482C15.2409 18.357 16.4517 17.4618 17.4168 16.3309C18.3818 15.2 19.0755 13.8634 19.4447 12.4233C19.814 10.9832 19.849 9.47768 19.5472 8.02196C19.2454 6.56623 18.6147 5.19879 17.7033 4.02419C16.792 2.84959 15.6241 1.89894 14.289 1.24493C12.9539 0.59091 11.4869 0.250845 10.0002 0.250732H10.0002ZM5.50015 11.125C5.27765 11.125 5.06014 11.059 4.87513 10.9354C4.69013 10.8118 4.54593 10.6361 4.46078 10.4305C4.37564 10.225 4.35336 9.99875 4.39677 9.78052C4.44017 9.56229 4.54732 9.36184 4.70465 9.2045C4.86199 9.04717 5.06244 8.94002 5.28067 8.89662C5.4989 8.85321 5.7251 8.87549 5.93067 8.96064C6.13624 9.04578 6.31194 9.18998 6.43555 9.37498C6.55917 9.55999 6.62515 9.7775 6.62515 10C6.62515 10.2984 6.50662 10.5845 6.29564 10.7955C6.08467 11.0065 5.79852 11.125 5.50015 11.125ZM10.0001 11.125C9.77765 11.125 9.56014 11.059 9.37513 10.9354C9.19013 10.8118 9.04593 10.6361 8.96078 10.4305C8.87564 10.225 8.85336 9.99875 8.89677 9.78052C8.94017 9.56229 9.04732 9.36184 9.20465 9.2045C9.36199 9.04717 9.56244 8.94002 9.78067 8.89662C9.9989 8.85321 10.2251 8.87549 10.4307 8.96064C10.6362 9.04578 10.8119 9.18998 10.9356 9.37498C11.0592 9.55999 11.1251 9.7775 11.1251 10C11.1251 10.2984 11.0066 10.5845 10.7956 10.7955C10.5847 11.0065 10.2985 11.125 10.0001 11.125ZM14.5001 11.125C14.2776 11.125 14.0601 11.059 13.8751 10.9354C13.6901 10.8118 13.5459 10.6361 13.4608 10.4305C13.3756 10.225 13.3534 9.99875 13.3968 9.78052C13.4402 9.56229 13.5473 9.36184 13.7047 9.2045C13.862 9.04717 14.0624 8.94002 14.2807 8.89662C14.4989 8.85321 14.7251 8.87549 14.9307 8.96064C15.1362 9.04578 15.3119 9.18998 15.4356 9.37498C15.5592 9.55999 15.6251 9.7775 15.6251 10C15.6251 10.2984 15.5066 10.5845 15.2956 10.7955C15.0847 11.0065 14.7985 11.125 14.5001 11.125Z" fill="white"/>
</svg>
