<svg width="173" height="14" viewBox="0 0 173 14" fill="none" xmlns="http://www.w3.org/2000/svg">
<g clip-path="url(#clip0_50_18206)">
<path fill-rule="evenodd" clip-rule="evenodd" d="M62.2906 3.97167C63.0187 3.95608 63.7401 4.11291 64.396 4.42935C65.0045 4.7379 65.5034 5.22613 65.825 5.82782C66.1887 6.55961 66.3635 7.37079 66.3335 8.18743V13.9034H65.0011V8.30948C65.0326 7.88592 64.98 7.46032 64.8465 7.05713C64.713 6.65394 64.5011 6.28111 64.2231 5.96004C63.9333 5.68553 63.59 5.47382 63.2146 5.33818C62.8392 5.20255 62.4398 5.14591 62.0415 5.17181C61.4072 5.1572 60.7794 5.30235 60.2158 5.5939C59.7009 5.86909 59.2822 6.29488 59.0157 6.81438C58.7206 7.40941 58.5757 8.06763 58.5936 8.73156V13.9034H57.2612V0H58.5936V5.76527C58.9096 5.27482 59.3416 4.86592 59.8548 4.57683C60.5975 4.15963 61.439 3.95057 62.2906 3.97167ZM0 0.788256V13.9034H1.33236V3.47362L6.48384 12.2354H7.11951L12.2913 3.41459V13.9034H13.6237V0.788256H12.4795L6.82877 10.5222L1.14421 0.788256H0ZM21.206 13.6339C21.8117 13.891 22.4654 14.0158 23.1232 14C23.9359 14.0284 24.74 13.8256 25.4421 13.4152C25.8859 13.1485 26.2536 12.7769 26.5151 12.3363V13.9034L27.7661 13.8729V7.77046C27.7831 6.48217 27.444 5.52273 26.749 4.89214C25.9213 4.21446 24.8671 3.87638 23.7995 3.94627C23.0485 3.94414 22.3019 4.06085 21.5874 4.29207C20.9293 4.50163 20.3179 4.83665 19.7872 5.27863L20.3873 6.2957C20.8201 5.92762 21.3164 5.64156 21.8518 5.45153C22.4339 5.24091 23.0484 5.13419 23.6673 5.13624C24.4248 5.07952 25.1746 5.32032 25.7574 5.80751C26.0025 6.06301 26.1915 6.36687 26.3123 6.69964C26.4332 7.0324 26.4832 7.38673 26.4592 7.73995V8.32985H23.3317C22.5657 8.29908 21.8018 8.429 21.089 8.71125C20.5954 8.91902 20.178 9.27424 19.894 9.72832C19.6488 10.1532 19.5223 10.6362 19.5278 11.1268C19.5178 11.6558 19.6685 12.1753 19.9601 12.6168C20.2682 13.0693 20.701 13.4226 21.206 13.6339ZM26.4592 9.34692H23.3927C22.4417 9.34692 21.7857 9.51474 21.4145 9.85546C21.233 10.0239 21.0901 10.2297 20.9957 10.4587C20.9013 10.6877 20.8577 10.9345 20.8679 11.1819C20.878 11.4294 20.9417 11.6717 21.0545 11.8922C21.1673 12.1127 21.3266 12.3061 21.5213 12.4592C22.0601 12.8271 22.7058 13.0059 23.3571 12.9677C24.0383 12.9871 24.7108 12.8106 25.2946 12.4592C25.834 12.0942 26.238 11.5616 26.4439 10.9437L26.4592 10.9905V9.34692ZM32.6074 5.1718V4.06827H34.3669V1.89174H35.6993V4.06827H38.7098V5.1718H35.6993V11.0454C35.6695 11.5291 35.826 12.0058 36.1366 12.3778C36.3034 12.5397 36.5023 12.6649 36.7203 12.7455C36.9384 12.8261 37.1709 12.8602 37.4029 12.8456C37.9376 12.866 38.4605 12.6845 38.8675 12.3371L39.3353 13.2931C39.0598 13.528 38.7374 13.7014 38.3895 13.8017C38.0233 13.9235 37.6412 13.9903 37.2554 14C36.867 14.0258 36.4774 13.9723 36.1102 13.843C35.7431 13.7136 35.406 13.5109 35.1196 13.2474C34.8573 12.9641 34.6553 12.6306 34.5259 12.2669C34.3966 11.9032 34.3425 11.5171 34.3669 11.1318V5.1718H32.6074ZM45.6004 13.3542C46.4017 13.7905 47.302 14.0129 48.2143 14C49.0073 14.0221 49.7945 13.8584 50.5129 13.522C51.1755 13.2031 51.7305 12.6976 52.1097 12.0676L51.0926 11.3963C50.7791 11.8652 50.3453 12.2411 49.8365 12.4846C49.2806 12.7385 48.6733 12.8596 48.0626 12.8384C47.4519 12.8172 46.8544 12.6543 46.3175 12.3625C45.758 12.0465 45.2969 11.5818 44.9851 11.02C44.6408 10.398 44.4654 9.69669 44.4765 8.98585C44.4654 8.27502 44.6408 7.57368 44.9851 6.95171C45.2957 6.39029 45.7572 5.927 46.3175 5.61426C46.8544 5.32248 47.4519 5.15956 48.0626 5.13838C48.6733 5.11719 49.2806 5.23833 49.8365 5.49221C50.3412 5.74614 50.7655 6.13521 51.0621 6.61607L52.0792 5.93972C51.7031 5.30588 51.1474 4.79792 50.4824 4.48022C49.7751 4.13962 48.9992 3.96566 48.2143 3.97169C47.3031 3.95793 46.4035 4.17672 45.6004 4.60736C44.848 5.01861 44.2234 5.62914 43.7951 6.37198C43.3471 7.16543 43.1206 8.06468 43.1391 8.97568C43.1224 9.88325 43.3489 10.7787 43.7951 11.5692C44.2225 12.3179 44.8469 12.9353 45.6004 13.3542ZM87.0563 4.42935C86.4062 4.11175 85.6895 3.95479 84.9662 3.97167C84.0386 3.94629 83.1253 4.20345 82.3472 4.70904C81.8252 5.04971 81.3964 5.50995 81.094 6.0477C80.8618 5.51305 80.4929 5.04309 80.0181 4.6887C79.296 4.19513 78.4363 3.94239 77.5619 3.96658C76.7305 3.94534 75.9098 4.15669 75.1921 4.57682C74.6747 4.88727 74.247 5.32272 73.9462 5.84001V4.06829H72.6698V13.9034H73.997V8.73156C73.9774 8.06972 74.1151 7.41267 74.3988 6.81438C74.6508 6.29981 75.0534 5.87412 75.5532 5.59389C76.088 5.30394 76.6892 5.15846 77.2974 5.17181C77.6818 5.1478 78.0668 5.20565 78.4271 5.34153C78.7874 5.47741 79.1148 5.68823 79.3875 5.96004C79.9341 6.61567 80.204 7.45829 80.1402 8.30948V13.9034H81.4674V8.73156C81.4494 8.06931 81.5888 7.41224 81.8743 6.81438C82.1243 6.29418 82.5293 5.86424 83.0337 5.58372C83.5716 5.29204 84.1765 5.14651 84.7882 5.16164C85.1734 5.13762 85.5593 5.19646 85.9198 5.33419C86.2804 5.47191 86.6072 5.68533 86.8783 5.96004C87.4151 6.62025 87.679 7.4609 87.6156 8.30948V13.9034H88.948V8.18743C88.973 7.37124 88.7984 6.56128 88.4395 5.82782C88.1339 5.22996 87.6507 4.74142 87.0563 4.42935ZM98.0661 14C97.4066 14.0153 96.7515 13.8905 96.1438 13.6339C95.6388 13.4226 95.206 13.0693 94.8979 12.6168C94.6064 12.1753 94.4556 11.6557 94.4657 11.1268C94.4601 10.6362 94.5866 10.1532 94.8318 9.7283C95.1179 9.27408 95.5369 8.91897 96.032 8.71123C96.7428 8.42851 97.5052 8.29856 98.2695 8.32983H101.402V7.73993C101.425 7.38635 101.375 7.03179 101.253 6.69901C101.131 6.36623 100.941 6.06256 100.695 5.80749C100.114 5.32109 99.3661 5.08031 98.6102 5.13622C97.9896 5.13368 97.3733 5.24041 96.7897 5.45151C96.2551 5.64009 95.7602 5.92634 95.3302 6.29568L94.7301 5.27861C95.259 4.83667 95.8686 4.50162 96.5252 4.29205C97.2398 4.06083 97.9864 3.94412 98.7374 3.94625C99.8148 3.88078 100.877 4.22808 101.707 4.91755C102.385 5.54814 102.724 6.50757 102.724 7.79587V13.8983L101.458 13.9034V12.3827C101.196 12.8135 100.832 13.1773 100.395 13.4406C99.6882 13.8457 98.8799 14.0398 98.0661 14ZM98.3102 9.3469H101.402V10.9691C101.177 11.5816 100.76 12.1045 100.212 12.4591C99.6268 12.8116 98.9524 12.9881 98.2695 12.9677C97.6182 13.0059 96.9725 12.827 96.4337 12.4591C96.2385 12.3062 96.079 12.1127 95.9661 11.892C95.8533 11.6712 95.7898 11.4286 95.7801 11.1808C95.7705 10.9331 95.8148 10.6862 95.9101 10.4574C96.0054 10.2285 96.1494 10.0231 96.332 9.85544C96.6981 9.51472 97.3592 9.3469 98.3102 9.3469ZM109.081 0V13.9034H110.413V11.1014L112.735 8.94936L116.709 13.9034L118.341 13.9135L113.722 8.08835L117.93 4.06829H116.297L110.413 9.43448V0H109.081ZM128.995 12.4897C129.505 12.2776 129.957 11.9462 130.312 11.5235L131.065 12.388C130.626 12.914 130.066 13.3258 129.433 13.5881C128.751 13.8692 128.019 14.0094 127.282 14C126.345 14.0134 125.42 13.7913 124.591 13.3542C123.823 12.9419 123.187 12.3215 122.756 11.5641C122.312 10.7746 122.085 9.88136 122.1 8.97569C122.084 8.07531 122.3 7.18599 122.725 6.39232C123.126 5.64747 123.726 5.02927 124.459 4.60736C125.226 4.17721 126.093 3.95787 126.971 3.97169C127.797 3.96509 128.61 4.17366 129.331 4.57685C130.032 4.97336 130.614 5.54902 131.019 6.24485C131.453 6.98286 131.691 7.81966 131.711 8.67565L123.574 10.2521C123.799 11.0159 124.278 11.6798 124.932 12.1337C125.624 12.6023 126.446 12.8424 127.282 12.8202C127.869 12.8277 128.452 12.7152 128.995 12.4897ZM125.1 5.59392C124.558 5.91007 124.116 6.37164 123.824 6.92629C123.51 7.53033 123.352 8.20351 123.366 8.88415C123.355 9.02125 123.355 9.15896 123.366 9.29606L130.318 7.94336C130.186 7.15234 129.781 6.43253 129.173 5.90921C128.55 5.37173 127.748 5.08692 126.926 5.11081C126.285 5.10455 125.654 5.27146 125.1 5.59392ZM137.137 4.06828V13.9034H138.459V8.88411C138.393 7.90734 138.709 6.94309 139.339 6.19396C139.658 5.87575 140.041 5.62944 140.463 5.47156C140.885 5.31368 141.335 5.24789 141.785 5.27859C141.834 5.27356 141.883 5.27356 141.932 5.27859H142.085V3.98691C141.239 3.95777 140.402 4.16185 139.664 4.57681C139.117 4.90937 138.681 5.39407 138.408 5.96839V4.06828H137.137ZM153.217 13.9034L159.213 0.788256H160.58L166.576 13.9034H165.117L159.896 2.2436L154.656 13.9034H153.217ZM171.483 0.788256V13.9034H172.872V0.788256H171.483Z" fill="url(#paint0_linear_50_18206)"/>
</g>
<defs>
<linearGradient id="paint0_linear_50_18206" x1="-4.83109" y1="7.11955" x2="178.75" y2="7.11955" gradientUnits="userSpaceOnUse">
<stop stop-color="white"/>
<stop offset="1" stop-color="#B29B6A"/>
</linearGradient>
<clipPath id="clip0_50_18206">
<rect width="172.872" height="14" fill="white"/>
</clipPath>
</defs>
</svg>
