<svg width="24" height="25" viewBox="0 0 24 25" fill="none" xmlns="http://www.w3.org/2000/svg">
<path d="M8.62549 20.75L8.62549 18.7653C9.1672 18.6038 9.64233 18.2718 9.98016 17.8186C10.318 17.3654 10.5005 16.8153 10.5005 16.25C10.5005 15.6847 10.318 15.1346 9.98016 14.6814C9.64233 14.2282 9.1672 13.8962 8.62549 13.7347L8.62549 4.25C8.62549 4.05109 8.54647 3.86032 8.40582 3.71967C8.26517 3.57902 8.0744 3.5 7.87549 3.5C7.67658 3.5 7.48581 3.57902 7.34516 3.71967C7.20451 3.86032 7.12549 4.05109 7.12549 4.25L7.12549 13.7347C6.58377 13.8962 6.10865 14.2282 5.77081 14.6814C5.43298 15.1346 5.25049 15.6847 5.25049 16.25C5.25049 16.8153 5.43298 17.3654 5.77081 17.8186C6.10865 18.2718 6.58377 18.6038 7.12549 18.7653L7.12549 20.75C7.12549 20.9489 7.2045 21.1397 7.34516 21.2803C7.48581 21.421 7.67658 21.5 7.87549 21.5C8.0744 21.5 8.26517 21.421 8.40582 21.2803C8.54647 21.1397 8.62549 20.9489 8.62549 20.75Z" fill="#C6A15A"/>
<path d="M15.3756 4.24997L15.3755 7.73475C14.8338 7.89619 14.3586 8.22821 14.0208 8.6814C13.683 9.1346 13.5005 9.68476 13.5005 10.25C13.5005 10.8153 13.683 11.3654 14.0208 11.8186C14.3586 12.2718 14.8338 12.6039 15.3755 12.7653L15.3756 20.75C15.3756 20.9489 15.4546 21.1397 15.5953 21.2803C15.7359 21.421 15.9267 21.5 16.1256 21.5C16.3245 21.5 16.5153 21.421 16.6559 21.2803C16.7966 21.1397 16.8756 20.9489 16.8756 20.75L16.8755 12.7653C17.4172 12.6039 17.8923 12.2718 18.2302 11.8186C18.568 11.3654 18.7505 10.8153 18.7505 10.25C18.7505 9.68476 18.568 9.1346 18.2302 8.6814C17.8923 8.22821 17.4172 7.89619 16.8755 7.73475L16.8756 4.25007L16.8756 4.25002C16.8756 4.05111 16.7966 3.86034 16.6559 3.71969C16.5153 3.57903 16.3245 3.50001 16.1256 3.5C15.9267 3.49999 15.7359 3.57901 15.5953 3.71965C15.4546 3.8603 15.3756 4.05106 15.3756 4.24998L15.3756 4.24997Z" fill="#C6A15A"/>
</svg>
