<svg width="20" height="22" viewBox="0 0 20 22" fill="none" xmlns="http://www.w3.org/2000/svg">
<path d="M18.9478 9.69116L3.11206 0.823176C2.84561 0.673978 2.53997 0.609657 2.23599 0.63881C1.93201 0.667963 1.64416 0.7892 1.41092 0.98632C1.17769 1.18344 1.01017 1.44705 0.930757 1.74192C0.851345 2.03679 0.863823 2.34888 0.966523 2.63647L3.68564 10.25H10.7499C10.9489 10.25 11.1396 10.329 11.2803 10.4697C11.4209 10.6103 11.4999 10.8011 11.4999 11C11.4999 11.1989 11.4209 11.3897 11.2803 11.5303C11.1396 11.671 10.9489 11.75 10.7499 11.75H3.68564L0.966523 19.3635C0.886138 19.5898 0.86113 19.8321 0.893593 20.0701C0.926057 20.308 1.01505 20.5348 1.15311 20.7313C1.29118 20.9278 1.47431 21.0884 1.68718 21.1996C1.90004 21.3108 2.13645 21.3694 2.37662 21.3705C2.63435 21.3701 2.88763 21.3034 3.11215 21.1768L18.9478 12.3088C19.1804 12.1785 19.3741 11.9886 19.5089 11.7585C19.6438 11.5285 19.7149 11.2667 19.7149 11C19.7149 10.7334 19.6438 10.4715 19.509 10.2415C19.3742 10.0114 19.1805 9.82147 18.9478 9.69116Z" fill="white"/>
</svg>
