<svg width="24" height="25" viewBox="0 0 24 25" fill="none" xmlns="http://www.w3.org/2000/svg">
<path d="M20.6131 6.75684L12.7381 2.30577C12.5127 2.17925 12.2585 2.11279 12 2.11279C11.7415 2.11279 11.4873 2.17925 11.2619 2.30577L3.38691 6.75684C3.15583 6.88773 2.96357 7.07754 2.82973 7.30692C2.69589 7.53631 2.62525 7.79708 2.625 8.06265V16.9375C2.62525 17.2031 2.69589 17.4638 2.82973 17.6932C2.96357 17.9226 3.15583 18.1124 3.38691 18.2433L11.2619 22.6944C11.4873 22.8209 11.7415 22.8874 12 22.8874C12.2585 22.8874 12.5127 22.8209 12.7381 22.6944L20.6131 18.2433C20.8442 18.1124 21.0364 17.9226 21.1703 17.6932C21.3041 17.4638 21.3748 17.2031 21.375 16.9375V8.06265C21.3748 7.79708 21.3041 7.53631 21.1703 7.30693C21.0364 7.07754 20.8442 6.88773 20.6131 6.75684ZM12 15.8751C11.3325 15.8751 10.68 15.6771 10.125 15.3063C9.56994 14.9354 9.13735 14.4083 8.88191 13.7916C8.62646 13.1749 8.55963 12.4963 8.68985 11.8416C8.82008 11.187 9.14151 10.5856 9.61352 10.1136C10.0855 9.64159 10.6869 9.32015 11.3416 9.18993C11.9963 9.0597 12.6749 9.12654 13.2916 9.38198C13.9083 9.63743 14.4354 10.07 14.8062 10.625C15.1771 11.18 15.375 11.8326 15.375 12.5001C15.374 13.3949 15.0181 14.2527 14.3854 14.8854C13.7527 15.5182 12.8948 15.8741 12 15.8751Z" fill="#C6A15A"/>
</svg>
