<svg width="18" height="16" viewBox="0 0 18 16" fill="none" xmlns="http://www.w3.org/2000/svg">
<path d="M17.1234 5.1293C16.9447 4.92526 16.7251 4.76185 16.479 4.64991C16.233 4.53797 15.9662 4.48005 15.6962 4.48H11.4226V3.2C11.4217 2.3516 11.0871 1.53823 10.4923 0.938323C9.89742 0.338415 9.09092 0.000963833 8.24969 1.97143e-09C8.13184 -9.3262e-06 8.01631 0.0330849 7.91606 0.0955733C7.81581 0.158062 7.7348 0.247474 7.68211 0.353789L4.68453 6.4H1.26918C0.932693 6.40039 0.610095 6.53537 0.37216 6.77533C0.134226 7.01529 0.000384831 7.34064 0 7.68V14.72C0.000384831 15.0594 0.134226 15.3847 0.37216 15.6247C0.610095 15.8646 0.932693 15.9996 1.26918 16H14.7443C15.2082 15.9993 15.6559 15.8282 16.0036 15.5186C16.3514 15.209 16.5753 14.7822 16.6335 14.3181L17.5854 6.63812C17.6188 6.36798 17.5949 6.09376 17.5152 5.83363C17.4356 5.57351 17.302 5.33343 17.1234 5.1293ZM1.26918 7.68H4.44214V14.72H1.26918V7.68Z" fill="white" fill-opacity="0.6"/>
</svg>
