<svg width="19" height="16" viewBox="0 0 19 16" fill="none" xmlns="http://www.w3.org/2000/svg">
<path d="M18.3846 9.36187L17.3895 1.68184C17.3286 1.21774 17.0945 0.790956 16.731 0.481379C16.3675 0.171802 15.8994 0.000661736 15.4145 0H1.32687C0.975085 0.00038811 0.637824 0.13537 0.389075 0.375332C0.140326 0.615295 0.000402322 0.940642 0 1.28V8.32C0.000402322 8.65936 0.140326 8.9847 0.389075 9.22467C0.637824 9.46463 0.975085 9.59961 1.32687 9.6H4.89745L8.03127 15.6462C8.08636 15.7525 8.17105 15.8419 8.27586 15.9044C8.38066 15.9669 8.50144 16 8.62465 16C9.50411 15.999 10.3473 15.6616 10.9691 15.0617C11.591 14.4618 11.9408 13.6484 11.9418 12.8V11.52H16.4096C16.6919 11.52 16.9708 11.4621 17.2281 11.3502C17.4853 11.2382 17.715 11.0748 17.9017 10.8707C18.0885 10.6666 18.2282 10.4265 18.3114 10.1664C18.3947 9.90625 18.4196 9.63202 18.3846 9.36187ZM4.64404 8.32H1.32687V1.28H4.64404V8.32Z" fill="white" fill-opacity="0.6"/>
</svg>
