<svg width="81" height="80" viewBox="0 0 81 80" fill="none" xmlns="http://www.w3.org/2000/svg">
<path d="M40.5 50C47.4036 50 53 44.4036 53 37.5C53 30.5964 47.4036 25 40.5 25C33.5964 25 28 30.5964 28 37.5C28 44.4036 33.5964 50 40.5 50Z" stroke="white" stroke-width="2" stroke-linecap="round" stroke-linejoin="round"/>
<path d="M65.5 12.5H15.5C14.1193 12.5 13 13.6193 13 15V65C13 66.3807 14.1193 67.5 15.5 67.5H65.5C66.8807 67.5 68 66.3807 68 65V15C68 13.6193 66.8807 12.5 65.5 12.5Z" stroke="white" stroke-width="2" stroke-linecap="round" stroke-linejoin="round"/>
<path d="M18.5576 67.4999C19.6918 62.5287 22.4805 58.09 26.4669 54.9107C30.4533 51.7314 35.4011 50 40.5001 50C45.599 50 50.5468 51.7314 54.5332 54.9107C58.5196 58.09 61.3083 62.5287 62.4425 67.4999" stroke="white" stroke-width="2" stroke-linecap="round" stroke-linejoin="round"/>
</svg>
