<svg width="41" height="24" viewBox="0 0 41 24" fill="none" xmlns="http://www.w3.org/2000/svg">
<path d="M10.2469 1.63421C9.48167 1.20207 8.40502 1.8754 8.52799 2.77111C8.53695 4.31081 8.51306 5.85121 8.54029 7.39109C8.53484 7.70904 8.49286 8.11096 8.55943 8.37973V9.39121C8.53142 9.43742 8.5166 9.49043 8.5166 9.54447C8.5166 9.59852 8.53142 9.65153 8.55943 9.69774V10.1575C8.50673 10.2838 8.50673 10.6446 8.55943 10.7705V10.8318C8.4911 11.1305 8.51956 11.6671 8.55943 11.9659C8.55943 12.1008 8.55697 12.2356 8.55943 12.3712C8.50269 12.3963 8.50269 12.5468 8.55943 12.5728C8.55943 12.6384 8.55732 12.7041 8.55943 12.7696C8.50427 12.7849 8.50427 12.9252 8.55943 12.9407V13.07C8.50796 13.0889 8.50796 13.2946 8.55943 13.3159V13.4143C8.50392 13.4171 8.50392 13.5513 8.55943 13.5548V13.6207C8.49813 13.8127 8.5171 14.2313 8.55943 14.4196V15.5537C8.50673 15.68 8.50673 16.0406 8.55943 16.1666C8.55943 16.2804 8.55697 16.3925 8.55943 16.5069L8.52799 16.8095C8.52992 18.4648 8.51552 20.1175 8.56716 21.7696C8.70084 22.4176 9.4021 22.8287 10.0354 22.6404C10.4805 22.5369 10.7858 22.1169 10.8582 21.6839C10.8526 18.0843 10.8707 14.4846 10.8492 10.8858C10.8492 8.14926 10.8821 5.41486 10.8896 2.67853C10.9053 2.24201 10.6316 1.82639 10.2469 1.63421Z" fill="white"/>
<path d="M1.20987 10.5012C0.647744 10.4905 0.141655 10.9258 0.0279998 11.4649C-0.0461307 11.8487 0.0215005 12.2905 0.29624 12.5855C0.801627 13.2117 1.90515 13.1216 2.30356 12.4191C2.50469 12.0414 2.51805 11.5642 2.35099 11.1719C2.13035 10.7638 1.68153 10.4791 1.20987 10.5012Z" fill="white"/>
<path d="M18.9072 3.27935C18.566 2.94559 17.9986 2.92346 17.5913 3.1462C17.2594 3.4046 17.0291 3.83621 17.0599 4.26852V8.58987C17.0567 12.4724 17.0567 16.3549 17.0599 20.2375C17.0575 20.5301 17.1456 20.8162 17.3121 21.0568C17.652 21.4476 18.2595 21.5472 18.7132 21.3069C19.164 21.0961 19.3528 20.5537 19.3281 20.0841C19.3191 15.0129 19.3412 9.94091 19.317 4.87017C19.3627 4.32508 19.3848 3.65545 18.9072 3.27935Z" fill="white"/>
<path d="M15.0341 7.55069C15.0752 7.04952 15.0341 6.4166 14.5229 6.16118C13.8613 5.69426 12.7966 6.31137 12.9192 7.12154C12.9354 10.3921 12.8831 13.6584 12.891 16.9301C12.8852 17.3918 13.221 17.898 13.6909 17.968C14.021 18.0865 14.4707 17.9925 14.7072 17.7055C15.2341 17.2458 14.9829 16.4713 15.0258 15.8665C15.0341 13.0934 15.0871 10.325 15.0341 7.55069Z" fill="white"/>
<path d="M6.49106 16.331C6.52373 13.7687 6.4944 11.2016 6.50582 8.63687C6.51425 8.30187 6.42536 7.85797 6.09652 7.68916C6.12129 7.64524 6.06138 7.56619 6.01308 7.60431C5.8321 7.52354 5.63395 7.48879 5.43629 7.50316C5.23863 7.51754 5.0476 7.58059 4.88022 7.6867C4.75296 7.80342 4.65172 7.94563 4.58307 8.10407C4.51443 8.26251 4.47993 8.43364 4.48181 8.6063C4.49305 9.94416 4.45844 11.288 4.49937 12.6216C4.47802 12.647 4.46631 12.6791 4.46631 12.7122C4.46631 12.7453 4.47802 12.7774 4.49937 12.8028C4.46547 13.0838 4.48005 13.371 4.49604 13.6533C4.46547 14.554 4.49182 15.4581 4.48409 16.3601H4.51483C4.51183 16.5758 4.59183 16.7843 4.73828 16.9426C4.69963 16.9932 4.78518 17.0523 4.82857 17.021C4.93397 17.1366 5.09558 17.2356 5.25561 17.2494C5.25104 17.3056 5.34766 17.2999 5.37295 17.2669C5.65068 17.3224 5.96248 17.2559 6.16994 17.0575C6.22949 17.0835 6.28852 16.9873 6.27534 16.9377C6.39831 16.8169 6.46629 16.6215 6.4749 16.4473C6.53023 16.4536 6.52496 16.3568 6.49106 16.331Z" fill="white"/>
<path d="M35.8806 8.54589H35.8499C35.8518 8.50439 35.8469 8.46285 35.8355 8.42292C35.8706 8.39692 35.872 8.2982 35.814 8.30769C35.7631 7.86729 35.3573 7.55461 34.9297 7.5316C34.861 7.48048 34.5844 7.49049 34.5006 7.56814C34.3758 7.58723 34.2602 7.64484 34.1698 7.73291C34.1145 7.71675 34.0405 7.79123 34.057 7.84674C33.8824 7.99992 33.849 8.26535 33.8269 8.4837C33.7656 8.4779 33.8093 8.57153 33.7962 8.60667C33.8046 10.1009 33.7858 11.5954 33.8058 13.0898C33.7846 14.1491 33.8058 15.2099 33.7965 16.2693C33.7421 16.7554 34.1392 17.2502 34.6119 17.3298C35.2029 17.4632 35.8254 17.0291 35.8794 16.4208C35.8773 15.1785 35.8969 13.9342 35.8695 12.6926C35.8989 11.3126 35.8713 9.92802 35.8806 8.54589Z" fill="white"/>
<path d="M23.3181 9.96297C23.3084 9.8588 23.2959 9.74848 23.2429 9.65801C23.2736 9.60672 23.2281 9.50325 23.1638 9.51309C23.1549 9.48123 23.1426 9.45038 23.1273 9.42104C23.1173 9.37157 23.0944 9.32564 23.0609 9.28795C23.0273 9.25026 22.9843 9.22217 22.9364 9.20656C22.8213 9.12185 22.6876 9.0659 22.5466 9.04336C22.5516 8.9868 22.4545 8.99066 22.429 9.0258C22.278 8.98627 22.1162 9.03932 21.9723 9.0871C21.9372 9.05197 21.8434 9.08535 21.8557 9.13769C21.8253 9.14237 21.7963 9.15343 21.7706 9.17014C21.7449 9.18686 21.723 9.20885 21.7064 9.23466C21.6681 9.24355 21.6331 9.26313 21.6055 9.29112C21.5779 9.31911 21.5589 9.35436 21.5505 9.39276C21.4587 9.54612 21.417 9.72512 21.387 9.89885C21.3002 10.1082 21.3822 10.4757 21.364 10.7354C21.3584 10.7699 21.3597 10.8052 21.3678 10.8392C21.3544 10.9368 21.3532 11.0357 21.3645 11.1336C21.3545 12.0913 21.3418 13.0524 21.3719 14.0099C21.3324 14.0507 21.3192 14.1758 21.3884 14.1856C21.432 14.6058 21.8606 14.9847 22.282 14.99C22.3071 15.0472 22.4577 15.0465 22.4842 14.99C22.5497 14.9967 22.6155 14.981 22.6709 14.9455C22.7017 14.9807 22.7833 14.9427 22.763 14.8958C22.8747 14.8879 22.9631 14.7946 23.0136 14.7026C23.0693 14.7165 23.1605 14.6551 23.1264 14.5917C23.2387 14.4458 23.3216 14.2569 23.3197 14.0705L23.3479 14.0716C23.3513 12.7032 23.3479 11.3346 23.3479 9.96595L23.3181 9.96297Z" fill="white"/>
<path d="M27.57 9.91691V8.04098H27.6007C27.6039 6.32462 27.6039 4.60815 27.6007 2.89155H27.57C27.57 2.67706 27.5876 2.45081 27.4937 2.25055C27.5289 2.21542 27.4959 2.12126 27.4433 2.13391C27.4282 2.06597 27.3945 2.00357 27.346 1.95368C27.3379 1.90406 27.3166 1.85756 27.2842 1.81912C27.2518 1.78067 27.2096 1.75172 27.1621 1.73533C27.1354 1.72198 27.1084 1.70962 27.0811 1.69826C27.053 1.64868 27.011 1.6084 26.9603 1.58237C26.9096 1.55634 26.8523 1.5457 26.7957 1.55176C26.6446 1.48641 26.4701 1.50521 26.3136 1.52541C26.2878 1.48922 26.1907 1.48799 26.1986 1.54596C26.1279 1.56428 26.0587 1.58777 25.9915 1.61623C25.8334 1.64872 25.6902 1.78399 25.6208 1.91907L25.6113 1.94015C25.5121 1.98038 25.4801 2.09825 25.4643 2.19434C25.4232 2.26917 25.4126 2.3549 25.3981 2.43763C25.3397 2.4292 25.3417 2.52757 25.3779 2.55322C25.3524 4.60077 25.3582 6.65569 25.3759 8.705C25.3454 9.38341 25.3659 10.0657 25.3722 10.7455C25.364 13.3786 25.3475 16.0176 25.3805 18.6476C25.3607 18.6788 25.3501 18.7149 25.3496 18.7519C25.3492 18.7888 25.359 18.8251 25.378 18.8568C25.356 18.939 25.3567 19.0255 25.38 19.1073C25.3603 19.1387 25.3499 19.175 25.3499 19.212C25.3499 19.249 25.3603 19.2853 25.38 19.3167C25.38 19.3694 25.3779 19.4727 25.3772 19.5245C25.3631 20.1097 25.3324 20.7747 25.3937 21.3124C25.3872 21.4179 25.404 21.5234 25.4427 21.6217C25.4814 21.72 25.5412 21.8085 25.6178 21.8812C25.6271 21.9196 25.6468 21.9546 25.6746 21.9825C25.7025 22.0104 25.7376 22.0301 25.7759 22.0393C25.9435 22.2266 26.2242 22.3188 26.4705 22.3093C26.5118 22.3468 26.6363 22.362 26.6462 22.2918C27.2592 22.2884 27.6634 21.6392 27.6034 21.0676C27.593 19.7325 27.6197 18.3959 27.5902 17.0624C27.6209 15.63 27.5939 14.1945 27.6016 12.7613H27.5709V10.026C27.6255 10.0334 27.6248 9.9083 27.57 9.91691Z" fill="white"/>
<path d="M31.5942 3.45289C31.5844 3.36506 31.4844 3.29479 31.4103 3.26282C30.7886 2.65467 29.596 3.1785 29.6429 4.05208H29.6122C29.611 5.02269 29.611 5.99335 29.6122 6.96407H29.6429V18.397C29.6429 18.6479 29.6696 18.9258 29.8284 19.1327C30.2054 19.6875 31.1507 19.743 31.5449 19.1854C31.5874 19.2077 31.6631 19.1487 31.6295 19.102C31.7279 18.9381 31.7977 18.7447 31.7904 18.5504C31.7917 13.7989 31.7917 9.04787 31.7904 4.29731C31.7799 4.00729 31.7688 3.699 31.5942 3.45289Z" fill="white"/>
<path d="M40.2636 11.2216C40.0669 10.7194 39.4974 10.4431 38.9792 10.5099C38.5193 10.5757 38.1184 10.8905 37.9707 11.3355C37.6359 12.1182 38.3234 13.0991 39.1817 13.0117C40.0544 13.0447 40.6689 11.9802 40.2636 11.2216Z" fill="white"/>
</svg>
